<?xml version="1.0" encoding="UTF-8" standalone="no"?><svg xmlns="http://www.w3.org/2000/svg" xmlns:xlink="http://www.w3.org/1999/xlink" contentScriptType="application/ecmascript" contentStyleType="text/css" height="599px" preserveAspectRatio="none" style="width:469px;height:599px;" version="1.1" viewBox="0 0 469 599" width="469px" zoomAndPan="magnify"><defs><filter height="300%" id="frnmzs00n2d6g" width="300%" x="-1" y="-1"><feGaussianBlur result="blurOut" stdDeviation="2.0"/><feColorMatrix in="blurOut" result="blurOut2" type="matrix" values="0 0 0 0 0 0 0 0 0 0 0 0 0 0 0 0 0 0 .4 0"/><feOffset dx="4.0" dy="4.0" in="blurOut2" result="blurOut3"/><feBlend in="SourceGraphic" in2="blurOut3" mode="normal"/></filter></defs><g><text fill="#000000" font-family="sans-serif" font-size="18" lengthAdjust="spacingAndGlyphs" textLength="167" x="125.5" y="30.6279">大学生兼职/家教平台</text><rect fill="#FEFECE" filter="url(#frnmzs00n2d6g)" height="36.3887" rx="12.5" ry="12.5" style="stroke: #A80036; stroke-width: 1.5;" width="140" x="10" y="298.332"/><text fill="#000000" font-family="sans-serif" font-size="12" font-weight="bold" lengthAdjust="spacingAndGlyphs" textLength="120" x="20" y="322.084">大学生兼职/家教平台</text><rect fill="#FEFECE" filter="url(#frnmzs00n2d6g)" height="36.3887" rx="12.5" ry="12.5" style="stroke: #A80036; stroke-width: 1.5;" width="68" x="200" y="100.9717"/><text fill="#000000" font-family="sans-serif" font-size="12" lengthAdjust="spacingAndGlyphs" textLength="48" x="210" y="124.7236">用户管理</text><rect fill="#FEFECE" filter="url(#frnmzs00n2d6g)" height="36.3887" rx="12.5" ry="12.5" style="stroke: #A80036; stroke-width: 1.5;" width="68" x="318" y="44.583"/><text fill="#000000" font-family="sans-serif" font-size="12" lengthAdjust="spacingAndGlyphs" textLength="48" x="328" y="68.335">用户注册</text><path d="M268,119.166 L278,119.166 C293,119.166 293,62.7773 308,62.7773 L318,62.7773 " fill="none" style="stroke: #A80036; stroke-width: 1.0;"/><rect fill="#FEFECE" filter="url(#frnmzs00n2d6g)" height="36.3887" rx="12.5" ry="12.5" style="stroke: #A80036; stroke-width: 1.5;" width="104" x="318" y="100.9717"/><text fill="#000000" font-family="sans-serif" font-size="12" lengthAdjust="spacingAndGlyphs" textLength="84" x="328" y="124.7236">身份认证、存档</text><path d="M268,119.166 L278,119.166 C293,119.166 293,119.166 308,119.166 L318,119.166 " fill="none" style="stroke: #A80036; stroke-width: 1.0;"/><rect fill="#FEFECE" filter="url(#frnmzs00n2d6g)" height="36.3887" rx="12.5" ry="12.5" style="stroke: #A80036; stroke-width: 1.5;" width="68" x="318" y="157.3604"/><text fill="#000000" font-family="sans-serif" font-size="12" lengthAdjust="spacingAndGlyphs" textLength="48" x="328" y="181.1123">用户登录</text><path d="M268,119.166 L278,119.166 C293,119.166 293,175.5547 308,175.5547 L318,175.5547 " fill="none" style="stroke: #A80036; stroke-width: 1.0;"/><path d="M150,316.5264 L160,316.5264 C175,316.5264 175,119.166 190,119.166 L200,119.166 " fill="none" style="stroke: #A80036; stroke-width: 1.0;"/><rect fill="#FEFECE" filter="url(#frnmzs00n2d6g)" height="36.3887" rx="12.5" ry="12.5" style="stroke: #A80036; stroke-width: 1.5;" width="92" x="200" y="270.1377"/><text fill="#000000" font-family="sans-serif" font-size="12" lengthAdjust="spacingAndGlyphs" textLength="72" x="210" y="293.8896">发布招聘信息</text><rect fill="#FEFECE" filter="url(#frnmzs00n2d6g)" height="36.3887" rx="12.5" ry="12.5" style="stroke: #A80036; stroke-width: 1.5;" width="44" x="342" y="213.749"/><text fill="#000000" font-family="sans-serif" font-size="12" lengthAdjust="spacingAndGlyphs" textLength="24" x="352" y="237.501">担保</text><path d="M292,288.332 L302,288.332 C317,288.332 317,231.9434 332,231.9434 L342,231.9434 " fill="none" style="stroke: #A80036; stroke-width: 1.0;"/><rect fill="#FEFECE" filter="url(#frnmzs00n2d6g)" height="36.3887" rx="12.5" ry="12.5" style="stroke: #A80036; stroke-width: 1.5;" width="95" x="342" y="270.1377"/><text fill="#000000" font-family="sans-serif" font-size="12" lengthAdjust="spacingAndGlyphs" textLength="75" x="352" y="293.8896">评价/投诉机制</text><path d="M292,288.332 L302,288.332 C317,288.332 317,288.332 332,288.332 L342,288.332 " fill="none" style="stroke: #A80036; stroke-width: 1.0;"/><rect fill="#FEFECE" filter="url(#frnmzs00n2d6g)" height="36.3887" rx="12.5" ry="12.5" style="stroke: #A80036; stroke-width: 1.5;" width="71" x="342" y="326.5264"/><text fill="#000000" font-family="sans-serif" font-size="12" lengthAdjust="spacingAndGlyphs" textLength="51" x="352" y="350.2783">搜索/筛选</text><path d="M292,288.332 L302,288.332 C317,288.332 317,344.7207 332,344.7207 L342,344.7207 " fill="none" style="stroke: #A80036; stroke-width: 1.0;"/><path d="M150,316.5264 L160,316.5264 C175,316.5264 175,288.332 190,288.332 L200,288.332 " fill="none" style="stroke: #A80036; stroke-width: 1.0;"/><rect fill="#FEFECE" filter="url(#frnmzs00n2d6g)" height="36.3887" rx="12.5" ry="12.5" style="stroke: #A80036; stroke-width: 1.5;" width="92" x="200" y="411.1094"/><text fill="#000000" font-family="sans-serif" font-size="12" lengthAdjust="spacingAndGlyphs" textLength="72" x="210" y="434.8613">发布求职意向</text><rect fill="#FEFECE" filter="url(#frnmzs00n2d6g)" height="36.3887" rx="12.5" ry="12.5" style="stroke: #A80036; stroke-width: 1.5;" width="68" x="342" y="382.915"/><text fill="#000000" font-family="sans-serif" font-size="12" lengthAdjust="spacingAndGlyphs" textLength="48" x="352" y="406.667">简单简历</text><path d="M292,429.3037 L302,429.3037 C317,429.3037 317,401.1094 332,401.1094 L342,401.1094 " fill="none" style="stroke: #A80036; stroke-width: 1.0;"/><rect fill="#FEFECE" filter="url(#frnmzs00n2d6g)" height="36.3887" rx="12.5" ry="12.5" style="stroke: #A80036; stroke-width: 1.5;" width="71" x="342" y="439.3037"/><text fill="#000000" font-family="sans-serif" font-size="12" lengthAdjust="spacingAndGlyphs" textLength="51" x="352" y="463.0557">搜索/筛选</text><path d="M292,429.3037 L302,429.3037 C317,429.3037 317,457.498 332,457.498 L342,457.498 " fill="none" style="stroke: #A80036; stroke-width: 1.0;"/><path d="M150,316.5264 L160,316.5264 C175,316.5264 175,429.3037 190,429.3037 L200,429.3037 " fill="none" style="stroke: #A80036; stroke-width: 1.0;"/><rect fill="#FEFECE" filter="url(#frnmzs00n2d6g)" height="36.3887" rx="12.5" ry="12.5" style="stroke: #A80036; stroke-width: 1.5;" width="116" x="200" y="523.8867"/><text fill="#000000" font-family="sans-serif" font-size="12" lengthAdjust="spacingAndGlyphs" textLength="96" x="210" y="547.6387">大学生与家长沟通</text><rect fill="#FEFECE" filter="url(#frnmzs00n2d6g)" height="36.3887" rx="12.5" ry="12.5" style="stroke: #A80036; stroke-width: 1.5;" width="92" x="366" y="495.6924"/><text fill="#000000" font-family="sans-serif" font-size="12" lengthAdjust="spacingAndGlyphs" textLength="72" x="376" y="519.4443">传统电话联系</text><path d="M316,542.0811 L326,542.0811 C341,542.0811 341,513.8867 356,513.8867 L366,513.8867 " fill="none" style="stroke: #A80036; stroke-width: 1.0;"/><rect fill="#FEFECE" filter="url(#frnmzs00n2d6g)" height="36.3887" rx="12.5" ry="12.5" style="stroke: #A80036; stroke-width: 1.5;" width="92" x="366" y="552.0811"/><text fill="#000000" font-family="sans-serif" font-size="12" lengthAdjust="spacingAndGlyphs" textLength="72" x="376" y="575.833">在线实时交流</text><path d="M316,542.0811 L326,542.0811 C341,542.0811 341,570.2754 356,570.2754 L366,570.2754 " fill="none" style="stroke: #A80036; stroke-width: 1.0;"/><path d="M150,316.5264 L160,316.5264 C175,316.5264 175,542.0811 190,542.0811 L200,542.0811 " fill="none" style="stroke: #A80036; stroke-width: 1.0;"/><!--
@startmindmap 功能模块
title 大学生兼职/家教平台

* **大学生兼职/家教平台**
** 用户管理
*** 用户注册
*** 身份认证、存档
*** 用户登录
** 发布招聘信息
*** 担保
*** 评价/投诉机制
*** 搜索/筛选
** 发布求职意向
*** 简单简历
*** 搜索/筛选
** 大学生与家长沟通
*** 传统电话联系
*** 在线实时交流
@endmindmap

PlantUML version 1.2019.06(Sat May 25 01:10:25 CST 2019)
(GPL source distribution)
Java Runtime: Java(TM) SE Runtime Environment
JVM: Java HotSpot(TM) 64-Bit Server VM
Java Version: 1.8.0_162-b12
Operating System: Windows 10
OS Version: 10.0
Default Encoding: GBK
Language: zh
Country: CN
--></g></svg>