<?xml version="1.0" encoding="UTF-8" standalone="no"?><svg xmlns="http://www.w3.org/2000/svg" xmlns:xlink="http://www.w3.org/1999/xlink" contentScriptType="application/ecmascript" contentStyleType="text/css" height="482px" preserveAspectRatio="none" style="width:434px;height:482px;" version="1.1" viewBox="0 0 434 482" width="434px" zoomAndPan="magnify"><defs><filter height="300%" id="f11fpco87kqeqt" width="300%" x="-1" y="-1"><feGaussianBlur result="blurOut" stdDeviation="2.0"/><feColorMatrix in="blurOut" result="blurOut2" type="matrix" values="0 0 0 0 0 0 0 0 0 0 0 0 0 0 0 0 0 0 .4 0"/><feOffset dx="4.0" dy="4.0" in="blurOut2" result="blurOut3"/><feBlend in="SourceGraphic" in2="blurOut3" mode="normal"/></filter></defs><g><text fill="#000000" font-family="sans-serif" font-size="18" lengthAdjust="spacingAndGlyphs" textLength="118" x="157" y="30.6279">总体业务流程2</text><rect fill="#FEFECE" filter="url(#f11fpco87kqeqt)" height="36.3887" rx="12.5" ry="12.5" style="stroke: #A80036; stroke-width: 1.5;" width="68" x="246" y="34.583"/><text fill="#000000" font-family="sans-serif" font-size="12" lengthAdjust="spacingAndGlyphs" textLength="48" x="256" y="58.335">教学结束</text><rect fill="#FEFECE" filter="url(#f11fpco87kqeqt)" height="36.3887" rx="12.5" ry="12.5" style="stroke: #A80036; stroke-width: 1.5;" width="68" x="246" y="140.4832"/><text fill="#000000" font-family="sans-serif" font-size="12" lengthAdjust="spacingAndGlyphs" textLength="48" x="256" y="164.2351">进行协调</text><rect fill="#FEFECE" filter="url(#f11fpco87kqeqt)" height="36.3887" rx="12.5" ry="12.5" style="stroke: #A80036; stroke-width: 1.5;" width="200" x="180" y="246.3833"/><text fill="#000000" font-family="sans-serif" font-size="12" lengthAdjust="spacingAndGlyphs" textLength="180" x="190" y="270.1353">提供双方登记信息，提供法律支持</text><polygon fill="#FEFECE" filter="url(#f11fpco87kqeqt)" points="258,196.8718,302,196.8718,314,208.8718,302,220.8718,258,220.8718,246,208.8718,258,196.8718" style="stroke: #A80036; stroke-width: 1.5;"/><text fill="#000000" font-family="sans-serif" font-size="11" lengthAdjust="spacingAndGlyphs" textLength="6" x="284" y="233.4778">T</text><text fill="#000000" font-family="sans-serif" font-size="11" lengthAdjust="spacingAndGlyphs" textLength="44" x="258" y="213.9663">协调失败</text><polygon fill="#FEFECE" filter="url(#f11fpco87kqeqt)" points="280,302.772,292,314.772,280,326.772,268,314.772,280,302.772" style="stroke: #A80036; stroke-width: 1.5;"/><polygon fill="#FEFECE" filter="url(#f11fpco87kqeqt)" points="236,90.9717,324,90.9717,336,102.9717,324,114.9717,236,114.9717,224,102.9717,236,90.9717" style="stroke: #A80036; stroke-width: 1.5;"/><text fill="#000000" font-family="sans-serif" font-size="11" lengthAdjust="spacingAndGlyphs" textLength="6" x="284" y="127.5776">T</text><text fill="#000000" font-family="sans-serif" font-size="11" lengthAdjust="spacingAndGlyphs" textLength="88" x="236" y="108.0662">工资结算遇到问题</text><polygon fill="#FEFECE" filter="url(#f11fpco87kqeqt)" points="280,346.772,292,358.772,280,370.772,268,358.772,280,346.772" style="stroke: #A80036; stroke-width: 1.5;"/><path d="M10,386.2119 L10,431.7207 A0,0 0 0 0 10,431.7207 L226,431.7207 A0,0 0 0 0 226,431.7207 L226,412.9663 L246,408.9663 L226,404.9663 L226,396.2119 L216,386.2119 L10,386.2119 A0,0 0 0 0 10,386.2119 " fill="#FBFB77" filter="url(#f11fpco87kqeqt)" style="stroke: #A80036; stroke-width: 1.0;"/><path d="M216,386.2119 L216,396.2119 L226,396.2119 L216,386.2119 " fill="#FBFB77" style="stroke: #A80036; stroke-width: 1.0;"/><text fill="#000000" font-family="sans-serif" font-size="13" lengthAdjust="spacingAndGlyphs" textLength="195" x="16" y="406.1099">预交的保证金抽成后根据评价结果</text><text fill="#000000" font-family="sans-serif" font-size="13" lengthAdjust="spacingAndGlyphs" textLength="143" x="16" y="423.8643">按照一定比例返还给双方</text><rect fill="#FEFECE" filter="url(#f11fpco87kqeqt)" height="36.3887" rx="12.5" ry="12.5" style="stroke: #A80036; stroke-width: 1.5;" width="68" x="246" y="390.772"/><text fill="#000000" font-family="sans-serif" font-size="12" lengthAdjust="spacingAndGlyphs" textLength="48" x="256" y="414.5239">评价环节</text><ellipse cx="280" cy="461.7207" fill="#FFFFFF" filter="url(#f11fpco87kqeqt)" rx="10" ry="10" style="stroke: #000000; stroke-width: 1.5;"/><line style="stroke: #000000; stroke-width: 2.5;" x1="273.8128" x2="286.1872" y1="455.5335" y2="467.9079"/><line style="stroke: #000000; stroke-width: 2.5;" x1="286.1872" x2="273.8128" y1="455.5335" y2="467.9079"/><line style="stroke: #A80036; stroke-width: 1.5;" x1="280" x2="280" y1="220.8718" y2="246.3833"/><polygon fill="#A80036" points="276,236.3833,280,246.3833,284,236.3833,280,240.3833" style="stroke: #A80036; stroke-width: 1.0;"/><line style="stroke: #A80036; stroke-width: 1.5;" x1="314" x2="390" y1="208.8718" y2="208.8718"/><polygon fill="#A80036" points="386,254.5776,390,264.5776,394,254.5776,390,258.5776" style="stroke: #A80036; stroke-width: 1.5;"/><line style="stroke: #A80036; stroke-width: 1.5;" x1="390" x2="390" y1="208.8718" y2="314.772"/><line style="stroke: #A80036; stroke-width: 1.5;" x1="390" x2="292" y1="314.772" y2="314.772"/><polygon fill="#A80036" points="302,310.772,292,314.772,302,318.772,298,314.772" style="stroke: #A80036; stroke-width: 1.0;"/><line style="stroke: #A80036; stroke-width: 1.5;" x1="280" x2="280" y1="282.772" y2="302.772"/><polygon fill="#A80036" points="276,292.772,280,302.772,284,292.772,280,296.772" style="stroke: #A80036; stroke-width: 1.0;"/><line style="stroke: #A80036; stroke-width: 1.5;" x1="280" x2="280" y1="176.8718" y2="196.8718"/><polygon fill="#A80036" points="276,186.8718,280,196.8718,284,186.8718,280,190.8718" style="stroke: #A80036; stroke-width: 1.0;"/><line style="stroke: #A80036; stroke-width: 1.5;" x1="280" x2="280" y1="114.9717" y2="140.4832"/><polygon fill="#A80036" points="276,130.4832,280,140.4832,284,130.4832,280,134.4832" style="stroke: #A80036; stroke-width: 1.0;"/><line style="stroke: #A80036; stroke-width: 1.5;" x1="336" x2="408" y1="102.9717" y2="102.9717"/><polygon fill="#A80036" points="404,218.8833,408,228.8833,412,218.8833,408,222.8833" style="stroke: #A80036; stroke-width: 1.5;"/><line style="stroke: #A80036; stroke-width: 1.5;" x1="408" x2="408" y1="102.9717" y2="358.772"/><line style="stroke: #A80036; stroke-width: 1.5;" x1="408" x2="292" y1="358.772" y2="358.772"/><polygon fill="#A80036" points="302,354.772,292,358.772,302,362.772,298,358.772" style="stroke: #A80036; stroke-width: 1.0;"/><line style="stroke: #A80036; stroke-width: 1.5;" x1="280" x2="280" y1="326.772" y2="346.772"/><polygon fill="#A80036" points="276,336.772,280,346.772,284,336.772,280,340.772" style="stroke: #A80036; stroke-width: 1.0;"/><line style="stroke: #A80036; stroke-width: 1.5;" x1="280" x2="280" y1="70.9717" y2="90.9717"/><polygon fill="#A80036" points="276,80.9717,280,90.9717,284,80.9717,280,84.9717" style="stroke: #A80036; stroke-width: 1.0;"/><line style="stroke: #A80036; stroke-width: 1.5;" x1="280" x2="280" y1="370.772" y2="390.772"/><polygon fill="#A80036" points="276,380.772,280,390.772,284,380.772,280,384.772" style="stroke: #A80036; stroke-width: 1.0;"/><line style="stroke: #A80036; stroke-width: 1.5;" x1="280" x2="280" y1="427.1606" y2="451.7207"/><polygon fill="#A80036" points="276,441.7207,280,451.7207,284,441.7207,280,445.7207" style="stroke: #A80036; stroke-width: 1.0;"/><!--
@startuml 总体业务流程2
title 总体业务流程2
:教学结束;
if(工资结算遇到问题)then(T)
    :进行协调;
    if(协调失败)then(T)
        :提供双方登记信息，提供法律支持;
    endif
endif
:评价环节;
note left:预交的保证金抽成后根据评价结果\n按照一定比例返还给双方
end
@enduml

PlantUML version 1.2019.06(Sat May 25 01:10:25 CST 2019)
(GPL source distribution)
Java Runtime: Java(TM) SE Runtime Environment
JVM: Java HotSpot(TM) 64-Bit Server VM
Java Version: 1.8.0_162-b12
Operating System: Windows 10
OS Version: 10.0
Default Encoding: GBK
Language: zh
Country: CN
--></g></svg>